<?xml version="1.0" encoding="UTF-8" standalone="no"?>
<!DOCTYPE svg PUBLIC "-//W3C//DTD SVG 1.1//EN"
 "http://www.w3.org/Graphics/SVG/1.1/DTD/svg11.dtd">
<!-- Generated by graphviz version 2.30.1 (20180828.1746)
 -->
<!-- Title: G Pages: 1 -->
<svg width="3186pt" height="364pt"
 viewBox="0.00 0.00 3186.00 364.00" xmlns="http://www.w3.org/2000/svg" xmlns:xlink="http://www.w3.org/1999/xlink">
<g id="graph0" class="graph" transform="scale(1 1) rotate(0) translate(4 360)">
<title>G</title>
<polygon fill="white" stroke="white" points="-4,5 -4,-360 3183,-360 3183,5 -4,5"/>
<g id="clust1" class="cluster"><title>cluster_G</title>
<path fill="#808080" fill-opacity="0.094118" stroke="black" d="M20,-8C20,-8 3158,-8 3158,-8 3164,-8 3170,-14 3170,-20 3170,-20 3170,-336 3170,-336 3170,-342 3164,-348 3158,-348 3158,-348 20,-348 20,-348 14,-348 8,-342 8,-336 8,-336 8,-20 8,-20 8,-14 14,-8 20,-8"/>
</g>
<!-- ts_process_group -->
<g id="node1" class="node"><title>ts_process_group</title>
<ellipse fill="#ffffff" fill-opacity="0.698039" stroke="black" cx="3090" cy="-322" rx="72.2155" ry="18"/>
<text text-anchor="middle" x="3090" y="-318.3" font-family="Times,serif" font-size="14.00" fill="#000000">ts_process_group</text>
</g>
<!-- ts_process_group__Bounds -->
<g id="node2" class="node"><title>ts_process_group__Bounds</title>
<ellipse fill="#fecccc" fill-opacity="0.698039" stroke="black" cx="467" cy="-178" rx="37.5442" ry="18"/>
<text text-anchor="middle" x="467" y="-174.3" font-family="Times,serif" font-size="14.00" fill="#000000">Bounds</text>
</g>
<!-- ts_process_group__add_bands -->
<g id="node3" class="node"><title>ts_process_group__add_bands</title>
<ellipse fill="#fecccc" fill-opacity="0.698039" stroke="black" cx="1926" cy="-250" rx="48.1437" ry="18"/>
<text text-anchor="middle" x="1926" y="-246.3" font-family="Times,serif" font-size="14.00" fill="#000000">add_bands</text>
</g>
<!-- ts_process_group__adjust_for_s3 -->
<g id="node4" class="node"><title>ts_process_group__adjust_for_s3</title>
<ellipse fill="#fecccc" fill-opacity="0.698039" stroke="black" cx="1615" cy="-250" rx="57.2688" ry="18"/>
<text text-anchor="middle" x="1615" y="-246.3" font-family="Times,serif" font-size="14.00" fill="#000000">adjust_for_s3</text>
</g>
<!-- ts_process_group__apply_mask -->
<g id="node5" class="node"><title>ts_process_group__apply_mask</title>
<ellipse fill="#fecccc" fill-opacity="0.698039" stroke="black" cx="973" cy="-178" rx="53.4184" ry="18"/>
<text text-anchor="middle" x="973" y="-174.3" font-family="Times,serif" font-size="14.00" fill="#000000">apply_mask</text>
</g>
<!-- ts_process_group__array_mask -->
<g id="node6" class="node"><title>ts_process_group__array_mask</title>
<ellipse fill="#fecccc" fill-opacity="0.698039" stroke="black" cx="2528" cy="-250" rx="51.4931" ry="18"/>
<text text-anchor="middle" x="2528" y="-246.3" font-family="Times,serif" font-size="14.00" fill="#000000">array_mask</text>
</g>
<!-- ts_process_group__build_affine -->
<g id="node7" class="node"><title>ts_process_group__build_affine</title>
<ellipse fill="#fecccc" fill-opacity="0.698039" stroke="black" cx="608" cy="-250" rx="52.9443" ry="18"/>
<text text-anchor="middle" x="608" y="-246.3" font-family="Times,serif" font-size="14.00" fill="#000000">build_affine</text>
</g>
<!-- ts_process_group__build_df -->
<g id="node8" class="node"><title>ts_process_group__build_df</title>
<ellipse fill="#fecccc" fill-opacity="0.698039" stroke="black" cx="2658" cy="-250" rx="39.9464" ry="18"/>
<text text-anchor="middle" x="2658" y="-246.3" font-family="Times,serif" font-size="14.00" fill="#000000">build_df</text>
</g>
<!-- ts_process_group__classify_qa -->
<g id="node17" class="node"><title>ts_process_group__classify_qa</title>
<ellipse fill="#fecccc" fill-opacity="0.698039" stroke="black" cx="2466" cy="-178" rx="50.0684" ry="18"/>
<text text-anchor="middle" x="2466" y="-174.3" font-family="Times,serif" font-size="14.00" fill="#000000">classify_qa</text>
</g>
<!-- ts_process_group__build_df&#45;&gt;ts_process_group__classify_qa -->
<g id="edge14" class="edge"><title>ts_process_group__build_df&#45;&gt;ts_process_group__classify_qa</title>
<path fill="none" stroke="#000000" d="M2627.58,-237.908C2595.78,-226.315 2545.59,-208.018 2509.59,-194.892"/>
<polygon fill="#000000" stroke="#000000" points="2510.43,-191.473 2499.84,-191.336 2508.03,-198.05 2510.43,-191.473"/>
</g>
<!-- ts_process_group__build_query -->
<g id="node9" class="node"><title>ts_process_group__build_query</title>
<ellipse fill="#fecccc" fill-opacity="0.698039" stroke="black" cx="326" cy="-250" rx="52.9443" ry="18"/>
<text text-anchor="middle" x="326" y="-246.3" font-family="Times,serif" font-size="14.00" fill="#000000">build_query</text>
</g>
<!-- ts_process_group__byte_scale -->
<g id="node10" class="node"><title>ts_process_group__byte_scale</title>
<ellipse fill="#fecccc" fill-opacity="0.698039" stroke="black" cx="854" cy="-178" rx="47.169" ry="18"/>
<text text-anchor="middle" x="854" y="-174.3" font-family="Times,serif" font-size="14.00" fill="#000000">byte_scale</text>
</g>
<!-- ts_process_group__byte_scale_bands -->
<g id="node11" class="node"><title>ts_process_group__byte_scale_bands</title>
<ellipse fill="#fecccc" fill-opacity="0.698039" stroke="black" cx="871" cy="-250" rx="72.2155" ry="18"/>
<text text-anchor="middle" x="871" y="-246.3" font-family="Times,serif" font-size="14.00" fill="#000000">byte_scale_bands</text>
</g>
<!-- ts_process_group__byte_scale_bands&#45;&gt;ts_process_group__byte_scale -->
<g id="edge8" class="edge"><title>ts_process_group__byte_scale_bands&#45;&gt;ts_process_group__byte_scale</title>
<path fill="none" stroke="#000000" d="M866.798,-231.697C864.904,-223.898 862.623,-214.509 860.516,-205.829"/>
<polygon fill="#000000" stroke="#000000" points="863.915,-204.996 858.154,-196.104 857.113,-206.648 863.915,-204.996"/>
</g>
<!-- ts_process_group__byte_scale_bands&#45;&gt;ts_process_group__apply_mask -->
<g id="edge9" class="edge"><title>ts_process_group__byte_scale_bands&#45;&gt;ts_process_group__apply_mask</title>
<path fill="none" stroke="#000000" d="M894.401,-232.941C908.463,-223.29 926.53,-210.891 941.796,-200.414"/>
<polygon fill="#000000" stroke="#000000" points="944.145,-203.048 950.409,-194.503 940.184,-197.276 944.145,-203.048"/>
</g>
<!-- ts_process_group__center -->
<g id="node12" class="node"><title>ts_process_group__center</title>
<ellipse fill="#fecccc" fill-opacity="0.698039" stroke="black" cx="1288" cy="-106" rx="32.2457" ry="18"/>
<text text-anchor="middle" x="1288" y="-102.3" font-family="Times,serif" font-size="14.00" fill="#000000">center</text>
</g>
<!-- ts_process_group__center_value -->
<g id="node13" class="node"><title>ts_process_group__center_value</title>
<ellipse fill="#fecccc" fill-opacity="0.698039" stroke="black" cx="1288" cy="-178" rx="55.3682" ry="18"/>
<text text-anchor="middle" x="1288" y="-174.3" font-family="Times,serif" font-size="14.00" fill="#000000">center_value</text>
</g>
<!-- ts_process_group__center_value&#45;&gt;ts_process_group__center -->
<g id="edge10" class="edge"><title>ts_process_group__center_value&#45;&gt;ts_process_group__center</title>
<path fill="none" stroke="#000000" d="M1288,-159.697C1288,-151.983 1288,-142.712 1288,-134.112"/>
<polygon fill="#000000" stroke="#000000" points="1291.5,-134.104 1288,-124.104 1284.5,-134.104 1291.5,-134.104"/>
</g>
<!-- ts_process_group__centered_bounds -->
<g id="node14" class="node"><title>ts_process_group__centered_bounds</title>
<ellipse fill="#fecccc" fill-opacity="0.698039" stroke="black" cx="467" cy="-250" rx="70.2909" ry="18"/>
<text text-anchor="middle" x="467" y="-246.3" font-family="Times,serif" font-size="14.00" fill="#000000">centered_bounds</text>
</g>
<!-- ts_process_group__centered_bounds&#45;&gt;ts_process_group__Bounds -->
<g id="edge1" class="edge"><title>ts_process_group__centered_bounds&#45;&gt;ts_process_group__Bounds</title>
<path fill="none" stroke="#000000" d="M467,-231.697C467,-223.983 467,-214.712 467,-206.112"/>
<polygon fill="#000000" stroke="#000000" points="470.5,-206.104 467,-196.104 463.5,-206.104 470.5,-206.104"/>
</g>
<!-- ts_process_group__centered_window -->
<g id="node15" class="node"><title>ts_process_group__centered_window</title>
<ellipse fill="#fecccc" fill-opacity="0.698039" stroke="black" cx="716" cy="-178" rx="72.192" ry="18"/>
<text text-anchor="middle" x="716" y="-174.3" font-family="Times,serif" font-size="14.00" fill="#000000">centered_window</text>
</g>
<!-- ts_process_group__check_bit -->
<g id="node16" class="node"><title>ts_process_group__check_bit</title>
<ellipse fill="#fecccc" fill-opacity="0.698039" stroke="black" cx="1937" cy="-34" rx="44.271" ry="18"/>
<text text-anchor="middle" x="1937" y="-30.3" font-family="Times,serif" font-size="14.00" fill="#000000">check_bit</text>
</g>
<!-- ts_process_group__passes_qa_check -->
<g id="node30" class="node"><title>ts_process_group__passes_qa_check</title>
<ellipse fill="#fecccc" fill-opacity="0.698039" stroke="black" cx="1937" cy="-106" rx="70.2668" ry="18"/>
<text text-anchor="middle" x="1937" y="-102.3" font-family="Times,serif" font-size="14.00" fill="#000000">passes_qa_check</text>
</g>
<!-- ts_process_group__classify_qa&#45;&gt;ts_process_group__passes_qa_check -->
<g id="edge13" class="edge"><title>ts_process_group__classify_qa&#45;&gt;ts_process_group__passes_qa_check</title>
<path fill="none" stroke="#000000" d="M2419.98,-170.91C2327.47,-158.669 2118.43,-131.007 2008.16,-116.416"/>
<polygon fill="#000000" stroke="#000000" points="2008.5,-112.931 1998.13,-115.089 2007.58,-119.871 2008.5,-112.931"/>
</g>
<!-- ts_process_group__composite -->
<g id="node18" class="node"><title>ts_process_group__composite</title>
<ellipse fill="#fecccc" fill-opacity="0.698039" stroke="black" cx="2040" cy="-250" rx="47.169" ry="18"/>
<text text-anchor="middle" x="2040" y="-246.3" font-family="Times,serif" font-size="14.00" fill="#000000">composite</text>
</g>
<!-- ts_process_group__convert_sr -->
<g id="node19" class="node"><title>ts_process_group__convert_sr</title>
<ellipse fill="#fecccc" fill-opacity="0.698039" stroke="black" cx="1967" cy="-178" rx="46.1964" ry="18"/>
<text text-anchor="middle" x="1967" y="-174.3" font-family="Times,serif" font-size="14.00" fill="#000000">convert_sr</text>
</g>
<!-- ts_process_group__data_to_collection_1 -->
<g id="node20" class="node"><title>ts_process_group__data_to_collection_1</title>
<ellipse fill="#fecccc" fill-opacity="0.698039" stroke="black" cx="1775" cy="-250" rx="84.2388" ry="18"/>
<text text-anchor="middle" x="1775" y="-246.3" font-family="Times,serif" font-size="14.00" fill="#000000">data_to_collection_1</text>
</g>
<!-- ts_process_group__data_to_collection_1&#45;&gt;ts_process_group__convert_sr -->
<g id="edge5" class="edge"><title>ts_process_group__data_to_collection_1&#45;&gt;ts_process_group__convert_sr</title>
<path fill="none" stroke="#000000" d="M1815.72,-234.155C1847.74,-222.48 1892.21,-206.267 1924.65,-194.441"/>
<polygon fill="#000000" stroke="#000000" points="1926.1,-197.635 1934.3,-190.922 1923.71,-191.059 1926.1,-197.635"/>
</g>
<!-- ts_process_group__determine_hv -->
<g id="node21" class="node"><title>ts_process_group__determine_hv</title>
<ellipse fill="#fecccc" fill-opacity="0.698039" stroke="black" cx="81" cy="-178" rx="59.2173" ry="18"/>
<text text-anchor="middle" x="81" y="-174.3" font-family="Times,serif" font-size="14.00" fill="#000000">determine_hv</text>
</g>
<!-- ts_process_group__tile_grid_affine -->
<g id="node39" class="node"><title>ts_process_group__tile_grid_affine</title>
<ellipse fill="#fecccc" fill-opacity="0.698039" stroke="black" cx="81" cy="-106" rx="64.4914" ry="18"/>
<text text-anchor="middle" x="81" y="-102.3" font-family="Times,serif" font-size="14.00" fill="#000000">tile_grid_affine</text>
</g>
<!-- ts_process_group__determine_hv&#45;&gt;ts_process_group__tile_grid_affine -->
<g id="edge2" class="edge"><title>ts_process_group__determine_hv&#45;&gt;ts_process_group__tile_grid_affine</title>
<path fill="none" stroke="#000000" d="M81,-159.697C81,-151.983 81,-142.712 81,-134.112"/>
<polygon fill="#000000" stroke="#000000" points="84.5001,-134.104 81,-124.104 77.5001,-134.104 84.5001,-134.104"/>
</g>
<!-- ts_process_group__transform_geo -->
<g id="node41" class="node"><title>ts_process_group__transform_geo</title>
<ellipse fill="#fecccc" fill-opacity="0.698039" stroke="black" cx="226" cy="-106" rx="61.6163" ry="18"/>
<text text-anchor="middle" x="226" y="-102.3" font-family="Times,serif" font-size="14.00" fill="#000000">transform_geo</text>
</g>
<!-- ts_process_group__determine_hv&#45;&gt;ts_process_group__transform_geo -->
<g id="edge3" class="edge"><title>ts_process_group__determine_hv&#45;&gt;ts_process_group__transform_geo</title>
<path fill="none" stroke="#000000" d="M111.044,-162.496C132.867,-151.961 162.614,-137.6 186.38,-126.127"/>
<polygon fill="#000000" stroke="#000000" points="188.012,-129.226 195.496,-121.726 184.968,-122.922 188.012,-129.226"/>
</g>
<!-- ts_process_group__determine_hvs -->
<g id="node22" class="node"><title>ts_process_group__determine_hvs</title>
<ellipse fill="#fecccc" fill-opacity="0.698039" stroke="black" cx="78" cy="-250" rx="61.6163" ry="18"/>
<text text-anchor="middle" x="78" y="-246.3" font-family="Times,serif" font-size="14.00" fill="#000000">determine_hvs</text>
</g>
<!-- ts_process_group__determine_hvs&#45;&gt;ts_process_group__determine_hv -->
<g id="edge4" class="edge"><title>ts_process_group__determine_hvs&#45;&gt;ts_process_group__determine_hv</title>
<path fill="none" stroke="#000000" d="M78.7416,-231.697C79.0722,-223.983 79.4695,-214.712 79.838,-206.112"/>
<polygon fill="#000000" stroke="#000000" points="83.3355,-206.245 80.267,-196.104 76.3419,-205.945 83.3355,-206.245"/>
</g>
<!-- ts_process_group__df_to_csv -->
<g id="node23" class="node"><title>ts_process_group__df_to_csv</title>
<ellipse fill="#fecccc" fill-opacity="0.698039" stroke="black" cx="2151" cy="-250" rx="45.244" ry="18"/>
<text text-anchor="middle" x="2151" y="-246.3" font-family="Times,serif" font-size="14.00" fill="#000000">df_to_csv</text>
</g>
<!-- ts_process_group__group_dicts -->
<g id="node24" class="node"><title>ts_process_group__group_dicts</title>
<ellipse fill="#fecccc" fill-opacity="0.698039" stroke="black" cx="3110" cy="-250" rx="51.4931" ry="18"/>
<text text-anchor="middle" x="3110" y="-246.3" font-family="Times,serif" font-size="14.00" fill="#000000">group_dicts</text>
</g>
<!-- ts_process_group__group_records -->
<g id="node25" class="node"><title>ts_process_group__group_records</title>
<ellipse fill="#fecccc" fill-opacity="0.698039" stroke="black" cx="2938" cy="-322" rx="61.6163" ry="18"/>
<text text-anchor="middle" x="2938" y="-318.3" font-family="Times,serif" font-size="14.00" fill="#000000">group_records</text>
</g>
<!-- ts_process_group__group_records&#45;&gt;ts_process_group__group_dicts -->
<g id="edge15" class="edge"><title>ts_process_group__group_records&#45;&gt;ts_process_group__group_dicts</title>
<path fill="none" stroke="#000000" d="M2972.39,-307.003C2999.96,-295.783 3038.76,-279.994 3068.13,-268.039"/>
<polygon fill="#000000" stroke="#000000" points="3069.76,-271.156 3077.7,-264.144 3067.12,-264.672 3069.76,-271.156"/>
</g>
<!-- ts_process_group__invalid_pixel -->
<g id="node26" class="node"><title>ts_process_group__invalid_pixel</title>
<ellipse fill="#fecccc" fill-opacity="0.698039" stroke="black" cx="2357" cy="-322" rx="55.3436" ry="18"/>
<text text-anchor="middle" x="2357" y="-318.3" font-family="Times,serif" font-size="14.00" fill="#000000">invalid_pixel</text>
</g>
<!-- ts_process_group__landsat_optical_band_list -->
<g id="node27" class="node"><title>ts_process_group__landsat_optical_band_list</title>
<ellipse fill="#fecccc" fill-opacity="0.698039" stroke="black" cx="2939" cy="-250" rx="100.611" ry="18"/>
<text text-anchor="middle" x="2939" y="-246.3" font-family="Times,serif" font-size="14.00" fill="#000000">landsat_optical_band_list</text>
</g>
<!-- ts_process_group__make_dirs -->
<g id="node28" class="node"><title>ts_process_group__make_dirs</title>
<ellipse fill="#fecccc" fill-opacity="0.698039" stroke="black" cx="1009" cy="-250" rx="48.1437" ry="18"/>
<text text-anchor="middle" x="1009" y="-246.3" font-family="Times,serif" font-size="14.00" fill="#000000">make_dirs</text>
</g>
<!-- ts_process_group__output_files -->
<g id="node29" class="node"><title>ts_process_group__output_files</title>
<ellipse fill="#fecccc" fill-opacity="0.698039" stroke="black" cx="2768" cy="-250" rx="51.4931" ry="18"/>
<text text-anchor="middle" x="2768" y="-246.3" font-family="Times,serif" font-size="14.00" fill="#000000">output_files</text>
</g>
<!-- ts_process_group__passes_qa_check&#45;&gt;ts_process_group__check_bit -->
<g id="edge12" class="edge"><title>ts_process_group__passes_qa_check&#45;&gt;ts_process_group__check_bit</title>
<path fill="none" stroke="#000000" d="M1937,-87.6966C1937,-79.9827 1937,-70.7125 1937,-62.1124"/>
<polygon fill="#000000" stroke="#000000" points="1940.5,-62.1043 1937,-52.1043 1933.5,-62.1044 1940.5,-62.1043"/>
</g>
<!-- ts_process_group__process_group -->
<g id="node31" class="node"><title>ts_process_group__process_group</title>
<ellipse fill="#fecccc" fill-opacity="0.698039" stroke="black" cx="1775" cy="-322" rx="61.6163" ry="18"/>
<text text-anchor="middle" x="1775" y="-318.3" font-family="Times,serif" font-size="14.00" fill="#000000">process_group</text>
</g>
<!-- ts_process_group__process_group&#45;&gt;ts_process_group__array_mask -->
<g id="edge20" class="edge"><title>ts_process_group__process_group&#45;&gt;ts_process_group__array_mask</title>
<path fill="none" stroke="#000000" d="M1836.13,-320.314C1957.37,-318.076 2236.49,-308.547 2467,-268 2471.51,-267.207 2476.16,-266.223 2480.8,-265.13"/>
<polygon fill="#000000" stroke="#000000" points="2482,-268.435 2490.84,-262.597 2480.29,-261.648 2482,-268.435"/>
</g>
<!-- ts_process_group__process_group&#45;&gt;ts_process_group__data_to_collection_1 -->
<g id="edge21" class="edge"><title>ts_process_group__process_group&#45;&gt;ts_process_group__data_to_collection_1</title>
<path fill="none" stroke="#000000" d="M1775,-303.697C1775,-295.983 1775,-286.712 1775,-278.112"/>
<polygon fill="#000000" stroke="#000000" points="1778.5,-278.104 1775,-268.104 1771.5,-278.104 1778.5,-278.104"/>
</g>
<!-- ts_process_group__process_group&#45;&gt;ts_process_group__build_df -->
<g id="edge22" class="edge"><title>ts_process_group__process_group&#45;&gt;ts_process_group__build_df</title>
<path fill="none" stroke="#000000" d="M1835.66,-319.02C2000.89,-313.324 2456.47,-295.52 2604,-268 2608.52,-267.156 2613.2,-266.052 2617.82,-264.811"/>
<polygon fill="#000000" stroke="#000000" points="2619.14,-268.073 2627.77,-261.925 2617.19,-261.35 2619.14,-268.073"/>
</g>
<!-- ts_process_group__process_group&#45;&gt;ts_process_group__output_files -->
<g id="edge23" class="edge"><title>ts_process_group__process_group&#45;&gt;ts_process_group__output_files</title>
<path fill="none" stroke="#000000" d="M1835.95,-319.245C2015.18,-313.815 2538.42,-295.949 2707,-268 2711.7,-267.221 2716.56,-266.218 2721.39,-265.09"/>
<polygon fill="#000000" stroke="#000000" points="2722.34,-268.458 2731.19,-262.629 2720.64,-261.669 2722.34,-268.458"/>
</g>
<!-- ts_process_group__process_group&#45;&gt;ts_process_group__landsat_optical_band_list -->
<g id="edge24" class="edge"><title>ts_process_group__process_group&#45;&gt;ts_process_group__landsat_optical_band_list</title>
<path fill="none" stroke="#000000" d="M1835.67,-318.76C2029.65,-311.469 2633.37,-287.75 2828,-268 2837.89,-266.996 2848.25,-265.718 2858.49,-264.314"/>
<polygon fill="#000000" stroke="#000000" points="2859.26,-267.739 2868.67,-262.873 2858.28,-260.808 2859.26,-267.739"/>
</g>
<!-- ts_process_group__process_group&#45;&gt;ts_process_group__build_affine -->
<g id="edge25" class="edge"><title>ts_process_group__process_group&#45;&gt;ts_process_group__build_affine</title>
<path fill="none" stroke="#000000" d="M1714.04,-319.839C1513.22,-315.738 873.664,-300.402 670,-268 665.288,-267.25 660.421,-266.277 655.581,-265.176"/>
<polygon fill="#000000" stroke="#000000" points="656.292,-261.746 645.746,-262.765 654.626,-268.545 656.292,-261.746"/>
</g>
<!-- ts_process_group__read_bands -->
<g id="node33" class="node"><title>ts_process_group__read_bands</title>
<ellipse fill="#fecccc" fill-opacity="0.698039" stroke="black" cx="730" cy="-250" rx="50.5427" ry="18"/>
<text text-anchor="middle" x="730" y="-246.3" font-family="Times,serif" font-size="14.00" fill="#000000">read_bands</text>
</g>
<!-- ts_process_group__process_group&#45;&gt;ts_process_group__read_bands -->
<g id="edge26" class="edge"><title>ts_process_group__process_group&#45;&gt;ts_process_group__read_bands</title>
<path fill="none" stroke="#000000" d="M1713.91,-319.491C1527.72,-314.612 969.172,-297.821 790,-268 785.493,-267.25 780.841,-266.285 776.215,-265.197"/>
<polygon fill="#000000" stroke="#000000" points="776.748,-261.721 766.194,-262.652 775.025,-268.506 776.748,-261.721"/>
</g>
<!-- ts_process_group__process_group&#45;&gt;ts_process_group__byte_scale_bands -->
<g id="edge27" class="edge"><title>ts_process_group__process_group&#45;&gt;ts_process_group__byte_scale_bands</title>
<path fill="none" stroke="#000000" d="M1713.79,-320.037C1576.74,-317.231 1235.02,-306.612 952,-268 945.4,-267.1 938.534,-265.968 931.715,-264.718"/>
<polygon fill="#000000" stroke="#000000" points="932.274,-261.261 921.794,-262.815 930.956,-268.136 932.274,-261.261"/>
</g>
<!-- ts_process_group__process_group&#45;&gt;ts_process_group__make_dirs -->
<g id="edge28" class="edge"><title>ts_process_group__process_group&#45;&gt;ts_process_group__make_dirs</title>
<path fill="none" stroke="#000000" d="M1713.74,-320.836C1590.18,-319.539 1302.71,-311.62 1066,-268 1061.89,-267.242 1057.65,-266.298 1053.43,-265.247"/>
<polygon fill="#000000" stroke="#000000" points="1054.24,-261.842 1043.68,-262.634 1052.43,-268.603 1054.24,-261.842"/>
</g>
<!-- ts_process_group__read_qa_at_plot -->
<g id="node34" class="node"><title>ts_process_group__read_qa_at_plot</title>
<ellipse fill="#fecccc" fill-opacity="0.698039" stroke="black" cx="1143" cy="-250" rx="67.3907" ry="18"/>
<text text-anchor="middle" x="1143" y="-246.3" font-family="Times,serif" font-size="14.00" fill="#000000">read_qa_at_plot</text>
</g>
<!-- ts_process_group__process_group&#45;&gt;ts_process_group__read_qa_at_plot -->
<g id="edge29" class="edge"><title>ts_process_group__process_group&#45;&gt;ts_process_group__read_qa_at_plot</title>
<path fill="none" stroke="#000000" d="M1715.15,-317.688C1613.09,-311.504 1399.04,-296.204 1220,-268 1213.88,-267.035 1207.51,-265.88 1201.18,-264.632"/>
<polygon fill="#000000" stroke="#000000" points="1201.8,-261.186 1191.3,-262.608 1200.39,-268.043 1201.8,-261.186"/>
</g>
<!-- ts_process_group__spectral_data -->
<g id="node36" class="node"><title>ts_process_group__spectral_data</title>
<ellipse fill="#fecccc" fill-opacity="0.698039" stroke="black" cx="1286" cy="-250" rx="57.2927" ry="18"/>
<text text-anchor="middle" x="1286" y="-246.3" font-family="Times,serif" font-size="14.00" fill="#000000">spectral_data</text>
</g>
<!-- ts_process_group__process_group&#45;&gt;ts_process_group__spectral_data -->
<g id="edge30" class="edge"><title>ts_process_group__process_group&#45;&gt;ts_process_group__spectral_data</title>
<path fill="none" stroke="#000000" d="M1717.22,-315.683C1636.29,-307.78 1484.73,-291.318 1357,-268 1351.09,-266.921 1344.93,-265.659 1338.82,-264.318"/>
<polygon fill="#000000" stroke="#000000" points="1339.17,-260.807 1328.64,-262.006 1337.62,-267.633 1339.17,-260.807"/>
</g>
<!-- ts_process_group__process_group&#45;&gt;ts_process_group__convert_sr -->
<g id="edge31" class="edge"><title>ts_process_group__process_group&#45;&gt;ts_process_group__convert_sr</title>
<path fill="none" stroke="#000000" d="M1835.87,-319.285C2020.37,-313.793 2562.34,-295.385 2588,-268 2598.94,-256.324 2598.82,-243.785 2588,-232 2569.02,-211.326 2172.74,-189.343 2023.34,-181.758"/>
<polygon fill="#000000" stroke="#000000" points="2023.18,-178.246 2013.01,-181.237 2022.82,-185.237 2023.18,-178.246"/>
</g>
<!-- ts_process_group__timesync_band_list -->
<g id="node40" class="node"><title>ts_process_group__timesync_band_list</title>
<ellipse fill="#fecccc" fill-opacity="0.698039" stroke="black" cx="1460" cy="-250" rx="78.9404" ry="18"/>
<text text-anchor="middle" x="1460" y="-246.3" font-family="Times,serif" font-size="14.00" fill="#000000">timesync_band_list</text>
</g>
<!-- ts_process_group__process_group&#45;&gt;ts_process_group__timesync_band_list -->
<g id="edge32" class="edge"><title>ts_process_group__process_group&#45;&gt;ts_process_group__timesync_band_list</title>
<path fill="none" stroke="#000000" d="M1727.5,-310.445C1673.37,-298.415 1584.61,-278.69 1524.31,-265.29"/>
<polygon fill="#000000" stroke="#000000" points="1525.03,-261.866 1514.51,-263.113 1523.51,-268.699 1525.03,-261.866"/>
</g>
<!-- ts_process_group__process_group&#45;&gt;ts_process_group__adjust_for_s3 -->
<g id="edge33" class="edge"><title>ts_process_group__process_group&#45;&gt;ts_process_group__adjust_for_s3</title>
<path fill="none" stroke="#000000" d="M1742.24,-306.666C1717.48,-295.836 1683.33,-280.894 1656.64,-269.217"/>
<polygon fill="#000000" stroke="#000000" points="1657.74,-265.878 1647.17,-265.076 1654.93,-272.291 1657.74,-265.878"/>
</g>
<!-- ts_process_group__process_group&#45;&gt;ts_process_group__passes_qa_check -->
<g id="edge34" class="edge"><title>ts_process_group__process_group&#45;&gt;ts_process_group__passes_qa_check</title>
<path fill="none" stroke="#000000" d="M1715.39,-317.439C1608.73,-310.456 1394.28,-293.399 1372,-268 1361.45,-255.971 1361.98,-244.476 1372,-232 1432.33,-156.867 1719.48,-124.146 1859.66,-112.463"/>
<polygon fill="#000000" stroke="#000000" points="1860.22,-115.929 1869.9,-111.625 1859.65,-108.952 1860.22,-115.929"/>
</g>
<!-- ts_process_group__process_group&#45;&gt;ts_process_group__add_bands -->
<g id="edge35" class="edge"><title>ts_process_group__process_group&#45;&gt;ts_process_group__add_bands</title>
<path fill="none" stroke="#000000" d="M1806.29,-306.496C1829.96,-295.524 1862.58,-280.402 1887.79,-268.714"/>
<polygon fill="#000000" stroke="#000000" points="1889.45,-271.8 1897.05,-264.418 1886.51,-265.449 1889.45,-271.8"/>
</g>
<!-- ts_process_group__process_group&#45;&gt;ts_process_group__centered_bounds -->
<g id="edge36" class="edge"><title>ts_process_group__process_group&#45;&gt;ts_process_group__centered_bounds</title>
<path fill="none" stroke="#000000" d="M1713.75,-319.728C1498.26,-315.041 775.705,-297.454 546,-268 539.608,-267.18 532.966,-266.107 526.369,-264.899"/>
<polygon fill="#000000" stroke="#000000" points="526.567,-261.372 516.084,-262.904 525.235,-268.244 526.567,-261.372"/>
</g>
<!-- ts_process_group__process_group&#45;&gt;ts_process_group__composite -->
<g id="edge37" class="edge"><title>ts_process_group__process_group&#45;&gt;ts_process_group__composite</title>
<path fill="none" stroke="#000000" d="M1820.58,-309.946C1862.82,-299.572 1927.33,-283.388 1983,-268 1986.76,-266.962 1990.64,-265.86 1994.54,-264.737"/>
<polygon fill="#000000" stroke="#000000" points="1995.57,-268.084 2004.18,-261.922 1993.6,-261.364 1995.57,-268.084"/>
</g>
<!-- ts_process_group__process_group&#45;&gt;ts_process_group__df_to_csv -->
<g id="edge38" class="edge"><title>ts_process_group__process_group&#45;&gt;ts_process_group__df_to_csv</title>
<path fill="none" stroke="#000000" d="M1830.55,-314.167C1894.91,-305.711 2003.92,-289.726 2096,-268 2099.83,-267.096 2103.78,-266.068 2107.73,-264.976"/>
<polygon fill="#000000" stroke="#000000" points="2108.83,-268.303 2117.46,-262.161 2106.88,-261.579 2108.83,-268.303"/>
</g>
<!-- ts_process_group__write_to_png -->
<g id="node42" class="node"><title>ts_process_group__write_to_png</title>
<ellipse fill="#fecccc" fill-opacity="0.698039" stroke="black" cx="2272" cy="-250" rx="57.2688" ry="18"/>
<text text-anchor="middle" x="2272" y="-246.3" font-family="Times,serif" font-size="14.00" fill="#000000">write_to_png</text>
</g>
<!-- ts_process_group__process_group&#45;&gt;ts_process_group__write_to_png -->
<g id="edge39" class="edge"><title>ts_process_group__process_group&#45;&gt;ts_process_group__write_to_png</title>
<path fill="none" stroke="#000000" d="M1833.08,-316.18C1916.05,-308.766 2073.04,-292.772 2205,-268 2210.03,-267.056 2215.25,-265.954 2220.44,-264.774"/>
<polygon fill="#000000" stroke="#000000" points="2221.44,-268.135 2230.36,-262.427 2219.83,-261.323 2221.44,-268.135"/>
</g>
<!-- ts_process_group__tasseled_cap -->
<g id="node38" class="node"><title>ts_process_group__tasseled_cap</title>
<ellipse fill="#fecccc" fill-opacity="0.698039" stroke="black" cx="2403" cy="-250" rx="55.3682" ry="18"/>
<text text-anchor="middle" x="2403" y="-246.3" font-family="Times,serif" font-size="14.00" fill="#000000">tasseled_cap</text>
</g>
<!-- ts_process_group__process_group&#45;&gt;ts_process_group__tasseled_cap -->
<g id="edge40" class="edge"><title>ts_process_group__process_group&#45;&gt;ts_process_group__tasseled_cap</title>
<path fill="none" stroke="#000000" d="M1835.42,-318.524C1938.97,-313.567 2156.73,-300.02 2338,-268 2342.97,-267.122 2348.12,-266.055 2353.24,-264.889"/>
<polygon fill="#000000" stroke="#000000" points="2354.1,-268.282 2363,-262.546 2352.46,-261.476 2354.1,-268.282"/>
</g>
<!-- ts_process_group__query_stac -->
<g id="node32" class="node"><title>ts_process_group__query_stac</title>
<ellipse fill="#fecccc" fill-opacity="0.698039" stroke="black" cx="206" cy="-250" rx="48.6179" ry="18"/>
<text text-anchor="middle" x="206" y="-246.3" font-family="Times,serif" font-size="14.00" fill="#000000">query_stac</text>
</g>
<!-- ts_process_group__read_bands&#45;&gt;ts_process_group__centered_window -->
<g id="edge6" class="edge"><title>ts_process_group__read_bands&#45;&gt;ts_process_group__centered_window</title>
<path fill="none" stroke="#000000" d="M726.539,-231.697C724.997,-223.983 723.142,-214.712 721.422,-206.112"/>
<polygon fill="#000000" stroke="#000000" points="724.814,-205.224 719.421,-196.104 717.95,-206.597 724.814,-205.224"/>
</g>
<!-- ts_process_group__single_pixel_window -->
<g id="node35" class="node"><title>ts_process_group__single_pixel_window</title>
<ellipse fill="#fecccc" fill-opacity="0.698039" stroke="black" cx="1130" cy="-178" rx="85.2138" ry="18"/>
<text text-anchor="middle" x="1130" y="-174.3" font-family="Times,serif" font-size="14.00" fill="#000000">single_pixel_window</text>
</g>
<!-- ts_process_group__read_qa_at_plot&#45;&gt;ts_process_group__single_pixel_window -->
<g id="edge7" class="edge"><title>ts_process_group__read_qa_at_plot&#45;&gt;ts_process_group__single_pixel_window</title>
<path fill="none" stroke="#000000" d="M1139.79,-231.697C1138.35,-223.983 1136.63,-214.712 1135.04,-206.112"/>
<polygon fill="#000000" stroke="#000000" points="1138.44,-205.297 1133.18,-196.104 1131.56,-206.575 1138.44,-205.297"/>
</g>
<!-- ts_process_group__spectral_data&#45;&gt;ts_process_group__center_value -->
<g id="edge11" class="edge"><title>ts_process_group__spectral_data&#45;&gt;ts_process_group__center_value</title>
<path fill="none" stroke="#000000" d="M1286.49,-231.697C1286.71,-223.983 1286.98,-214.712 1287.23,-206.112"/>
<polygon fill="#000000" stroke="#000000" points="1290.72,-206.2 1287.51,-196.104 1283.73,-206 1290.72,-206.2"/>
</g>
<!-- ts_process_group__stac_records_for_plot -->
<g id="node37" class="node"><title>ts_process_group__stac_records_for_plot</title>
<ellipse fill="#fecccc" fill-opacity="0.698039" stroke="black" cx="266" cy="-322" rx="87.1385" ry="18"/>
<text text-anchor="middle" x="266" y="-318.3" font-family="Times,serif" font-size="14.00" fill="#000000">stac_records_for_plot</text>
</g>
<!-- ts_process_group__stac_records_for_plot&#45;&gt;ts_process_group__centered_bounds -->
<g id="edge16" class="edge"><title>ts_process_group__stac_records_for_plot&#45;&gt;ts_process_group__centered_bounds</title>
<path fill="none" stroke="#000000" d="M308.627,-306.155C340.512,-295.051 384.186,-279.841 417.596,-268.205"/>
<polygon fill="#000000" stroke="#000000" points="418.876,-271.466 427.169,-264.872 416.574,-264.855 418.876,-271.466"/>
</g>
<!-- ts_process_group__stac_records_for_plot&#45;&gt;ts_process_group__determine_hvs -->
<g id="edge17" class="edge"><title>ts_process_group__stac_records_for_plot&#45;&gt;ts_process_group__determine_hvs</title>
<path fill="none" stroke="#000000" d="M225.669,-305.983C195.879,-294.891 155.272,-279.772 124.18,-268.195"/>
<polygon fill="#000000" stroke="#000000" points="125.038,-264.779 114.445,-264.57 122.595,-271.339 125.038,-264.779"/>
</g>
<!-- ts_process_group__stac_records_for_plot&#45;&gt;ts_process_group__query_stac -->
<g id="edge18" class="edge"><title>ts_process_group__stac_records_for_plot&#45;&gt;ts_process_group__query_stac</title>
<path fill="none" stroke="#000000" d="M251.476,-304.055C243.997,-295.33 234.752,-284.544 226.555,-274.981"/>
<polygon fill="#000000" stroke="#000000" points="229.143,-272.622 219.977,-267.307 223.828,-277.177 229.143,-272.622"/>
</g>
<!-- ts_process_group__stac_records_for_plot&#45;&gt;ts_process_group__build_query -->
<g id="edge19" class="edge"><title>ts_process_group__stac_records_for_plot&#45;&gt;ts_process_group__build_query</title>
<path fill="none" stroke="#000000" d="M280.524,-304.055C287.894,-295.457 296.98,-284.857 305.088,-275.397"/>
<polygon fill="#000000" stroke="#000000" points="307.759,-277.659 311.609,-267.789 302.444,-273.104 307.759,-277.659"/>
</g>
</g>
</svg>
