<?xml version="1.0" encoding="UTF-8" standalone="no"?>
<!DOCTYPE svg PUBLIC "-//W3C//DTD SVG 1.1//EN"
 "http://www.w3.org/Graphics/SVG/1.1/DTD/svg11.dtd">
<!-- Generated by graphviz version 2.30.1 (20180828.1746)
 -->
<!-- Title: G Pages: 1 -->
<svg width="3188pt" height="364pt"
 viewBox="0.00 0.00 3188.00 364.00" xmlns="http://www.w3.org/2000/svg" xmlns:xlink="http://www.w3.org/1999/xlink">
<g id="graph0" class="graph" transform="scale(1 1) rotate(0) translate(4 360)">
<title>G</title>
<polygon fill="white" stroke="white" points="-4,5 -4,-360 3185,-360 3185,5 -4,5"/>
<g id="clust1" class="cluster"><title>cluster_G</title>
<path fill="#808080" fill-opacity="0.094118" stroke="black" d="M20,-8C20,-8 3160,-8 3160,-8 3166,-8 3172,-14 3172,-20 3172,-20 3172,-336 3172,-336 3172,-342 3166,-348 3160,-348 3160,-348 20,-348 20,-348 14,-348 8,-342 8,-336 8,-336 8,-20 8,-20 8,-14 14,-8 20,-8"/>
</g>
<!-- ts_process_group -->
<g id="node1" class="node"><title>ts_process_group</title>
<ellipse fill="#ffffff" fill-opacity="0.698039" stroke="black" cx="3092" cy="-322" rx="72.2155" ry="18"/>
<text text-anchor="middle" x="3092" y="-318.3" font-family="Times,serif" font-size="14.00" fill="#000000">ts_process_group</text>
</g>
<!-- ts_process_group__Bounds -->
<g id="node2" class="node"><title>ts_process_group__Bounds</title>
<ellipse fill="#fecccc" fill-opacity="0.698039" stroke="black" cx="468" cy="-178" rx="37.5442" ry="18"/>
<text text-anchor="middle" x="468" y="-174.3" font-family="Times,serif" font-size="14.00" fill="#000000">Bounds</text>
</g>
<!-- ts_process_group__add_bands -->
<g id="node3" class="node"><title>ts_process_group__add_bands</title>
<ellipse fill="#fecccc" fill-opacity="0.698039" stroke="black" cx="1381" cy="-250" rx="48.1437" ry="18"/>
<text text-anchor="middle" x="1381" y="-246.3" font-family="Times,serif" font-size="14.00" fill="#000000">add_bands</text>
</g>
<!-- ts_process_group__adjust_for_s3 -->
<g id="node4" class="node"><title>ts_process_group__adjust_for_s3</title>
<ellipse fill="#fecccc" fill-opacity="0.698039" stroke="black" cx="2193" cy="-250" rx="57.2688" ry="18"/>
<text text-anchor="middle" x="2193" y="-246.3" font-family="Times,serif" font-size="14.00" fill="#000000">adjust_for_s3</text>
</g>
<!-- ts_process_group__apply_mask -->
<g id="node5" class="node"><title>ts_process_group__apply_mask</title>
<ellipse fill="#fecccc" fill-opacity="0.698039" stroke="black" cx="2895" cy="-178" rx="53.4184" ry="18"/>
<text text-anchor="middle" x="2895" y="-174.3" font-family="Times,serif" font-size="14.00" fill="#000000">apply_mask</text>
</g>
<!-- ts_process_group__array_mask -->
<g id="node6" class="node"><title>ts_process_group__array_mask</title>
<ellipse fill="#fecccc" fill-opacity="0.698039" stroke="black" cx="1933" cy="-250" rx="51.4931" ry="18"/>
<text text-anchor="middle" x="1933" y="-246.3" font-family="Times,serif" font-size="14.00" fill="#000000">array_mask</text>
</g>
<!-- ts_process_group__build_affine -->
<g id="node7" class="node"><title>ts_process_group__build_affine</title>
<ellipse fill="#fecccc" fill-opacity="0.698039" stroke="black" cx="1055" cy="-250" rx="52.9443" ry="18"/>
<text text-anchor="middle" x="1055" y="-246.3" font-family="Times,serif" font-size="14.00" fill="#000000">build_affine</text>
</g>
<!-- ts_process_group__build_df -->
<g id="node8" class="node"><title>ts_process_group__build_df</title>
<ellipse fill="#fecccc" fill-opacity="0.698039" stroke="black" cx="596" cy="-250" rx="39.9464" ry="18"/>
<text text-anchor="middle" x="596" y="-246.3" font-family="Times,serif" font-size="14.00" fill="#000000">build_df</text>
</g>
<!-- ts_process_group__classify_qa -->
<g id="node17" class="node"><title>ts_process_group__classify_qa</title>
<ellipse fill="#fecccc" fill-opacity="0.698039" stroke="black" cx="694" cy="-178" rx="50.0684" ry="18"/>
<text text-anchor="middle" x="694" y="-174.3" font-family="Times,serif" font-size="14.00" fill="#000000">classify_qa</text>
</g>
<!-- ts_process_group__build_df&#45;&gt;ts_process_group__classify_qa -->
<g id="edge14" class="edge"><title>ts_process_group__build_df&#45;&gt;ts_process_group__classify_qa</title>
<path fill="none" stroke="#000000" d="M616.783,-234.155C630.626,-224.267 649.026,-211.124 664.393,-200.148"/>
<polygon fill="#000000" stroke="#000000" points="666.466,-202.968 672.569,-194.308 662.397,-197.272 666.466,-202.968"/>
</g>
<!-- ts_process_group__build_query -->
<g id="node9" class="node"><title>ts_process_group__build_query</title>
<ellipse fill="#fecccc" fill-opacity="0.698039" stroke="black" cx="211" cy="-250" rx="52.9443" ry="18"/>
<text text-anchor="middle" x="211" y="-246.3" font-family="Times,serif" font-size="14.00" fill="#000000">build_query</text>
</g>
<!-- ts_process_group__byte_scale -->
<g id="node10" class="node"><title>ts_process_group__byte_scale</title>
<ellipse fill="#fecccc" fill-opacity="0.698039" stroke="black" cx="2776" cy="-178" rx="47.169" ry="18"/>
<text text-anchor="middle" x="2776" y="-174.3" font-family="Times,serif" font-size="14.00" fill="#000000">byte_scale</text>
</g>
<!-- ts_process_group__byte_scale_bands -->
<g id="node11" class="node"><title>ts_process_group__byte_scale_bands</title>
<ellipse fill="#fecccc" fill-opacity="0.698039" stroke="black" cx="2836" cy="-250" rx="72.2155" ry="18"/>
<text text-anchor="middle" x="2836" y="-246.3" font-family="Times,serif" font-size="14.00" fill="#000000">byte_scale_bands</text>
</g>
<!-- ts_process_group__byte_scale_bands&#45;&gt;ts_process_group__byte_scale -->
<g id="edge8" class="edge"><title>ts_process_group__byte_scale_bands&#45;&gt;ts_process_group__byte_scale</title>
<path fill="none" stroke="#000000" d="M2821.48,-232.055C2814,-223.33 2804.75,-212.544 2796.55,-202.981"/>
<polygon fill="#000000" stroke="#000000" points="2799.14,-200.622 2789.98,-195.307 2793.83,-205.177 2799.14,-200.622"/>
</g>
<!-- ts_process_group__byte_scale_bands&#45;&gt;ts_process_group__apply_mask -->
<g id="edge9" class="edge"><title>ts_process_group__byte_scale_bands&#45;&gt;ts_process_group__apply_mask</title>
<path fill="none" stroke="#000000" d="M2850.28,-232.055C2857.46,-223.543 2866.29,-213.068 2874.2,-203.681"/>
<polygon fill="#000000" stroke="#000000" points="2877.08,-205.691 2880.85,-195.789 2871.73,-201.18 2877.08,-205.691"/>
</g>
<!-- ts_process_group__center -->
<g id="node12" class="node"><title>ts_process_group__center</title>
<ellipse fill="#fecccc" fill-opacity="0.698039" stroke="black" cx="2060" cy="-106" rx="32.2457" ry="18"/>
<text text-anchor="middle" x="2060" y="-102.3" font-family="Times,serif" font-size="14.00" fill="#000000">center</text>
</g>
<!-- ts_process_group__center_value -->
<g id="node13" class="node"><title>ts_process_group__center_value</title>
<ellipse fill="#fecccc" fill-opacity="0.698039" stroke="black" cx="2060" cy="-178" rx="55.3682" ry="18"/>
<text text-anchor="middle" x="2060" y="-174.3" font-family="Times,serif" font-size="14.00" fill="#000000">center_value</text>
</g>
<!-- ts_process_group__center_value&#45;&gt;ts_process_group__center -->
<g id="edge10" class="edge"><title>ts_process_group__center_value&#45;&gt;ts_process_group__center</title>
<path fill="none" stroke="#000000" d="M2060,-159.697C2060,-151.983 2060,-142.712 2060,-134.112"/>
<polygon fill="#000000" stroke="#000000" points="2063.5,-134.104 2060,-124.104 2056.5,-134.104 2063.5,-134.104"/>
</g>
<!-- ts_process_group__centered_bounds -->
<g id="node14" class="node"><title>ts_process_group__centered_bounds</title>
<ellipse fill="#fecccc" fill-opacity="0.698039" stroke="black" cx="468" cy="-250" rx="70.2909" ry="18"/>
<text text-anchor="middle" x="468" y="-246.3" font-family="Times,serif" font-size="14.00" fill="#000000">centered_bounds</text>
</g>
<!-- ts_process_group__centered_bounds&#45;&gt;ts_process_group__Bounds -->
<g id="edge1" class="edge"><title>ts_process_group__centered_bounds&#45;&gt;ts_process_group__Bounds</title>
<path fill="none" stroke="#000000" d="M468,-231.697C468,-223.983 468,-214.712 468,-206.112"/>
<polygon fill="#000000" stroke="#000000" points="471.5,-206.104 468,-196.104 464.5,-206.104 471.5,-206.104"/>
</g>
<!-- ts_process_group__centered_window -->
<g id="node15" class="node"><title>ts_process_group__centered_window</title>
<ellipse fill="#fecccc" fill-opacity="0.698039" stroke="black" cx="933" cy="-178" rx="72.192" ry="18"/>
<text text-anchor="middle" x="933" y="-174.3" font-family="Times,serif" font-size="14.00" fill="#000000">centered_window</text>
</g>
<!-- ts_process_group__check_bit -->
<g id="node16" class="node"><title>ts_process_group__check_bit</title>
<ellipse fill="#fecccc" fill-opacity="0.698039" stroke="black" cx="959" cy="-34" rx="44.271" ry="18"/>
<text text-anchor="middle" x="959" y="-30.3" font-family="Times,serif" font-size="14.00" fill="#000000">check_bit</text>
</g>
<!-- ts_process_group__passes_qa_check -->
<g id="node30" class="node"><title>ts_process_group__passes_qa_check</title>
<ellipse fill="#fecccc" fill-opacity="0.698039" stroke="black" cx="959" cy="-106" rx="70.2668" ry="18"/>
<text text-anchor="middle" x="959" y="-102.3" font-family="Times,serif" font-size="14.00" fill="#000000">passes_qa_check</text>
</g>
<!-- ts_process_group__classify_qa&#45;&gt;ts_process_group__passes_qa_check -->
<g id="edge13" class="edge"><title>ts_process_group__classify_qa&#45;&gt;ts_process_group__passes_qa_check</title>
<path fill="none" stroke="#000000" d="M733.102,-166.671C777.643,-154.906 850.836,-135.572 901.791,-122.112"/>
<polygon fill="#000000" stroke="#000000" points="902.897,-125.44 911.671,-119.502 901.109,-118.672 902.897,-125.44"/>
</g>
<!-- ts_process_group__composite -->
<g id="node18" class="node"><title>ts_process_group__composite</title>
<ellipse fill="#fecccc" fill-opacity="0.698039" stroke="black" cx="702" cy="-250" rx="47.169" ry="18"/>
<text text-anchor="middle" x="702" y="-246.3" font-family="Times,serif" font-size="14.00" fill="#000000">composite</text>
</g>
<!-- ts_process_group__convert_sr -->
<g id="node19" class="node"><title>ts_process_group__convert_sr</title>
<ellipse fill="#fecccc" fill-opacity="0.698039" stroke="black" cx="1546" cy="-178" rx="46.1964" ry="18"/>
<text text-anchor="middle" x="1546" y="-174.3" font-family="Times,serif" font-size="14.00" fill="#000000">convert_sr</text>
</g>
<!-- ts_process_group__data_to_collection_1 -->
<g id="node20" class="node"><title>ts_process_group__data_to_collection_1</title>
<ellipse fill="#fecccc" fill-opacity="0.698039" stroke="black" cx="1230" cy="-250" rx="84.2388" ry="18"/>
<text text-anchor="middle" x="1230" y="-246.3" font-family="Times,serif" font-size="14.00" fill="#000000">data_to_collection_1</text>
</g>
<!-- ts_process_group__data_to_collection_1&#45;&gt;ts_process_group__convert_sr -->
<g id="edge5" class="edge"><title>ts_process_group__data_to_collection_1&#45;&gt;ts_process_group__convert_sr</title>
<path fill="none" stroke="#000000" d="M1286.13,-236.566C1346.03,-223.298 1439.97,-202.487 1496.99,-189.857"/>
<polygon fill="#000000" stroke="#000000" points="1497.84,-193.254 1506.84,-187.674 1496.32,-186.419 1497.84,-193.254"/>
</g>
<!-- ts_process_group__determine_hv -->
<g id="node21" class="node"><title>ts_process_group__determine_hv</title>
<ellipse fill="#fecccc" fill-opacity="0.698039" stroke="black" cx="78" cy="-178" rx="59.2173" ry="18"/>
<text text-anchor="middle" x="78" y="-174.3" font-family="Times,serif" font-size="14.00" fill="#000000">determine_hv</text>
</g>
<!-- ts_process_group__transform_geo -->
<g id="node41" class="node"><title>ts_process_group__transform_geo</title>
<ellipse fill="#fecccc" fill-opacity="0.698039" stroke="black" cx="78" cy="-106" rx="61.6163" ry="18"/>
<text text-anchor="middle" x="78" y="-102.3" font-family="Times,serif" font-size="14.00" fill="#000000">transform_geo</text>
</g>
<!-- ts_process_group__determine_hv&#45;&gt;ts_process_group__transform_geo -->
<g id="edge2" class="edge"><title>ts_process_group__determine_hv&#45;&gt;ts_process_group__transform_geo</title>
<path fill="none" stroke="#000000" d="M78,-159.697C78,-151.983 78,-142.712 78,-134.112"/>
<polygon fill="#000000" stroke="#000000" points="81.5001,-134.104 78,-124.104 74.5001,-134.104 81.5001,-134.104"/>
</g>
<!-- ts_process_group__tile_grid_affine -->
<g id="node39" class="node"><title>ts_process_group__tile_grid_affine</title>
<ellipse fill="#fecccc" fill-opacity="0.698039" stroke="black" cx="223" cy="-106" rx="64.4914" ry="18"/>
<text text-anchor="middle" x="223" y="-102.3" font-family="Times,serif" font-size="14.00" fill="#000000">tile_grid_affine</text>
</g>
<!-- ts_process_group__determine_hv&#45;&gt;ts_process_group__tile_grid_affine -->
<g id="edge3" class="edge"><title>ts_process_group__determine_hv&#45;&gt;ts_process_group__tile_grid_affine</title>
<path fill="none" stroke="#000000" d="M108.044,-162.496C129.72,-152.031 159.215,-137.793 182.901,-126.358"/>
<polygon fill="#000000" stroke="#000000" points="184.51,-129.468 191.994,-121.968 181.467,-123.164 184.51,-129.468"/>
</g>
<!-- ts_process_group__determine_hvs -->
<g id="node22" class="node"><title>ts_process_group__determine_hvs</title>
<ellipse fill="#fecccc" fill-opacity="0.698039" stroke="black" cx="78" cy="-250" rx="61.6163" ry="18"/>
<text text-anchor="middle" x="78" y="-246.3" font-family="Times,serif" font-size="14.00" fill="#000000">determine_hvs</text>
</g>
<!-- ts_process_group__determine_hvs&#45;&gt;ts_process_group__determine_hv -->
<g id="edge4" class="edge"><title>ts_process_group__determine_hvs&#45;&gt;ts_process_group__determine_hv</title>
<path fill="none" stroke="#000000" d="M78,-231.697C78,-223.983 78,-214.712 78,-206.112"/>
<polygon fill="#000000" stroke="#000000" points="81.5001,-206.104 78,-196.104 74.5001,-206.104 81.5001,-206.104"/>
</g>
<!-- ts_process_group__df_to_csv -->
<g id="node23" class="node"><title>ts_process_group__df_to_csv</title>
<ellipse fill="#fecccc" fill-opacity="0.698039" stroke="black" cx="1621" cy="-250" rx="45.244" ry="18"/>
<text text-anchor="middle" x="1621" y="-246.3" font-family="Times,serif" font-size="14.00" fill="#000000">df_to_csv</text>
</g>
<!-- ts_process_group__group_dicts -->
<g id="node24" class="node"><title>ts_process_group__group_dicts</title>
<ellipse fill="#fecccc" fill-opacity="0.698039" stroke="black" cx="3112" cy="-250" rx="51.4931" ry="18"/>
<text text-anchor="middle" x="3112" y="-246.3" font-family="Times,serif" font-size="14.00" fill="#000000">group_dicts</text>
</g>
<!-- ts_process_group__group_records -->
<g id="node25" class="node"><title>ts_process_group__group_records</title>
<ellipse fill="#fecccc" fill-opacity="0.698039" stroke="black" cx="2940" cy="-322" rx="61.6163" ry="18"/>
<text text-anchor="middle" x="2940" y="-318.3" font-family="Times,serif" font-size="14.00" fill="#000000">group_records</text>
</g>
<!-- ts_process_group__group_records&#45;&gt;ts_process_group__group_dicts -->
<g id="edge15" class="edge"><title>ts_process_group__group_records&#45;&gt;ts_process_group__group_dicts</title>
<path fill="none" stroke="#000000" d="M2974.39,-307.003C3001.96,-295.783 3040.76,-279.994 3070.13,-268.039"/>
<polygon fill="#000000" stroke="#000000" points="3071.76,-271.156 3079.7,-264.144 3069.12,-264.672 3071.76,-271.156"/>
</g>
<!-- ts_process_group__invalid_pixel -->
<g id="node26" class="node"><title>ts_process_group__invalid_pixel</title>
<ellipse fill="#fecccc" fill-opacity="0.698039" stroke="black" cx="2281" cy="-322" rx="55.3436" ry="18"/>
<text text-anchor="middle" x="2281" y="-318.3" font-family="Times,serif" font-size="14.00" fill="#000000">invalid_pixel</text>
</g>
<!-- ts_process_group__landsat_optical_band_list -->
<g id="node27" class="node"><title>ts_process_group__landsat_optical_band_list</title>
<ellipse fill="#fecccc" fill-opacity="0.698039" stroke="black" cx="2645" cy="-250" rx="100.611" ry="18"/>
<text text-anchor="middle" x="2645" y="-246.3" font-family="Times,serif" font-size="14.00" fill="#000000">landsat_optical_band_list</text>
</g>
<!-- ts_process_group__make_dirs -->
<g id="node28" class="node"><title>ts_process_group__make_dirs</title>
<ellipse fill="#fecccc" fill-opacity="0.698039" stroke="black" cx="816" cy="-250" rx="48.1437" ry="18"/>
<text text-anchor="middle" x="816" y="-246.3" font-family="Times,serif" font-size="14.00" fill="#000000">make_dirs</text>
</g>
<!-- ts_process_group__output_files -->
<g id="node29" class="node"><title>ts_process_group__output_files</title>
<ellipse fill="#fecccc" fill-opacity="0.698039" stroke="black" cx="2321" cy="-250" rx="51.4931" ry="18"/>
<text text-anchor="middle" x="2321" y="-246.3" font-family="Times,serif" font-size="14.00" fill="#000000">output_files</text>
</g>
<!-- ts_process_group__passes_qa_check&#45;&gt;ts_process_group__check_bit -->
<g id="edge12" class="edge"><title>ts_process_group__passes_qa_check&#45;&gt;ts_process_group__check_bit</title>
<path fill="none" stroke="#000000" d="M959,-87.6966C959,-79.9827 959,-70.7125 959,-62.1124"/>
<polygon fill="#000000" stroke="#000000" points="962.5,-62.1043 959,-52.1043 955.5,-62.1044 962.5,-62.1043"/>
</g>
<!-- ts_process_group__process_group -->
<g id="node31" class="node"><title>ts_process_group__process_group</title>
<ellipse fill="#fecccc" fill-opacity="0.698039" stroke="black" cx="1621" cy="-322" rx="61.6163" ry="18"/>
<text text-anchor="middle" x="1621" y="-318.3" font-family="Times,serif" font-size="14.00" fill="#000000">process_group</text>
</g>
<!-- ts_process_group__process_group&#45;&gt;ts_process_group__output_files -->
<g id="edge20" class="edge"><title>ts_process_group__process_group&#45;&gt;ts_process_group__output_files</title>
<path fill="none" stroke="#000000" d="M1682.18,-319.669C1796.38,-316.357 2049.42,-305.11 2259,-268 2263.76,-267.157 2268.69,-266.111 2273.59,-264.957"/>
<polygon fill="#000000" stroke="#000000" points="2274.7,-268.288 2283.55,-262.464 2273,-261.498 2274.7,-268.288"/>
</g>
<!-- ts_process_group__read_qa_at_plot -->
<g id="node34" class="node"><title>ts_process_group__read_qa_at_plot</title>
<ellipse fill="#fecccc" fill-opacity="0.698039" stroke="black" cx="2459" cy="-250" rx="67.3907" ry="18"/>
<text text-anchor="middle" x="2459" y="-246.3" font-family="Times,serif" font-size="14.00" fill="#000000">read_qa_at_plot</text>
</g>
<!-- ts_process_group__process_group&#45;&gt;ts_process_group__read_qa_at_plot -->
<g id="edge21" class="edge"><title>ts_process_group__process_group&#45;&gt;ts_process_group__read_qa_at_plot</title>
<path fill="none" stroke="#000000" d="M1681.9,-319.745C1811.26,-316.425 2122.74,-304.95 2381,-268 2387.54,-267.064 2394.36,-265.886 2401.11,-264.589"/>
<polygon fill="#000000" stroke="#000000" points="2401.82,-268.018 2410.93,-262.619 2400.44,-261.155 2401.82,-268.018"/>
</g>
<!-- ts_process_group__process_group&#45;&gt;ts_process_group__centered_bounds -->
<g id="edge22" class="edge"><title>ts_process_group__process_group&#45;&gt;ts_process_group__centered_bounds</title>
<path fill="none" stroke="#000000" d="M1559.54,-321.452C1394.75,-321.914 929.683,-318.277 547,-268 540.61,-267.161 533.97,-266.075 527.375,-264.859"/>
<polygon fill="#000000" stroke="#000000" points="527.575,-261.332 517.09,-262.856 526.237,-268.203 527.575,-261.332"/>
</g>
<!-- ts_process_group__process_group&#45;&gt;ts_process_group__landsat_optical_band_list -->
<g id="edge23" class="edge"><title>ts_process_group__process_group&#45;&gt;ts_process_group__landsat_optical_band_list</title>
<path fill="none" stroke="#000000" d="M1681.86,-319.477C1828.85,-315.363 2214.73,-301.956 2535,-268 2544.66,-266.976 2554.76,-265.699 2564.76,-264.308"/>
<polygon fill="#000000" stroke="#000000" points="2565.31,-267.766 2574.71,-262.884 2564.32,-260.836 2565.31,-267.766"/>
</g>
<!-- ts_process_group__process_group&#45;&gt;ts_process_group__byte_scale_bands -->
<g id="edge24" class="edge"><title>ts_process_group__process_group&#45;&gt;ts_process_group__byte_scale_bands</title>
<path fill="none" stroke="#000000" d="M1682,-319.417C1886.05,-313.921 2543.74,-294.545 2754,-268 2760.78,-267.144 2767.84,-266.028 2774.85,-264.777"/>
<polygon fill="#000000" stroke="#000000" points="2775.85,-268.15 2785.03,-262.863 2774.56,-261.271 2775.85,-268.15"/>
</g>
<!-- ts_process_group__write_to_png -->
<g id="node42" class="node"><title>ts_process_group__write_to_png</title>
<ellipse fill="#fecccc" fill-opacity="0.698039" stroke="black" cx="2984" cy="-250" rx="57.2688" ry="18"/>
<text text-anchor="middle" x="2984" y="-246.3" font-family="Times,serif" font-size="14.00" fill="#000000">write_to_png</text>
</g>
<!-- ts_process_group__process_group&#45;&gt;ts_process_group__write_to_png -->
<g id="edge25" class="edge"><title>ts_process_group__process_group&#45;&gt;ts_process_group__write_to_png</title>
<path fill="none" stroke="#000000" d="M1681.77,-319.258C1921.45,-312.284 2794.16,-285.897 2917,-268 2922.34,-267.221 2927.88,-266.191 2933.37,-265.022"/>
<polygon fill="#000000" stroke="#000000" points="2934.2,-268.424 2943.17,-262.792 2932.64,-261.599 2934.2,-268.424"/>
</g>
<!-- ts_process_group__process_group&#45;&gt;ts_process_group__passes_qa_check -->
<g id="edge26" class="edge"><title>ts_process_group__process_group&#45;&gt;ts_process_group__passes_qa_check</title>
<path fill="none" stroke="#000000" d="M1559.39,-321.148C1444.91,-320.321 1204.86,-313.079 1137,-268 1121.75,-257.872 1128.85,-245.948 1117,-232 1080.72,-189.303 1027.98,-151.097 993.586,-128.48"/>
<polygon fill="#000000" stroke="#000000" points="995.123,-125.305 984.829,-122.798 991.312,-131.177 995.123,-125.305"/>
</g>
<!-- ts_process_group__process_group&#45;&gt;ts_process_group__composite -->
<g id="edge27" class="edge"><title>ts_process_group__process_group&#45;&gt;ts_process_group__composite</title>
<path fill="none" stroke="#000000" d="M1560.41,-319.075C1390.76,-313.399 913.365,-295.393 759,-268 754.768,-267.249 750.405,-266.293 746.066,-265.218"/>
<polygon fill="#000000" stroke="#000000" points="746.622,-261.743 736.056,-262.535 744.809,-268.505 746.622,-261.743"/>
</g>
<!-- ts_process_group__process_group&#45;&gt;ts_process_group__make_dirs -->
<g id="edge28" class="edge"><title>ts_process_group__process_group&#45;&gt;ts_process_group__make_dirs</title>
<path fill="none" stroke="#000000" d="M1559.35,-321.176C1430.69,-320.55 1124.67,-313.872 873,-268 868.886,-267.25 864.646,-266.312 860.425,-265.264"/>
<polygon fill="#000000" stroke="#000000" points="861.238,-261.859 850.674,-262.656 859.43,-268.621 861.238,-261.859"/>
</g>
<!-- ts_process_group__process_group&#45;&gt;ts_process_group__data_to_collection_1 -->
<g id="edge29" class="edge"><title>ts_process_group__process_group&#45;&gt;ts_process_group__data_to_collection_1</title>
<path fill="none" stroke="#000000" d="M1570.02,-311.939C1510.85,-301.415 1410.35,-283.513 1324,-268 1316.87,-266.72 1309.44,-265.382 1302.02,-264.043"/>
<polygon fill="#000000" stroke="#000000" points="1302.4,-260.554 1291.94,-262.222 1301.16,-267.443 1302.4,-260.554"/>
</g>
<!-- ts_process_group__process_group&#45;&gt;ts_process_group__build_affine -->
<g id="edge30" class="edge"><title>ts_process_group__process_group&#45;&gt;ts_process_group__build_affine</title>
<path fill="none" stroke="#000000" d="M1561.47,-317.434C1467.52,-311.188 1279.36,-296.172 1122,-268 1116.32,-266.984 1110.42,-265.75 1104.57,-264.417"/>
<polygon fill="#000000" stroke="#000000" points="1105.37,-261.009 1094.83,-262.099 1103.75,-267.819 1105.37,-261.009"/>
</g>
<!-- ts_process_group__read_bands -->
<g id="node33" class="node"><title>ts_process_group__read_bands</title>
<ellipse fill="#fecccc" fill-opacity="0.698039" stroke="black" cx="933" cy="-250" rx="50.5427" ry="18"/>
<text text-anchor="middle" x="933" y="-246.3" font-family="Times,serif" font-size="14.00" fill="#000000">read_bands</text>
</g>
<!-- ts_process_group__process_group&#45;&gt;ts_process_group__read_bands -->
<g id="edge31" class="edge"><title>ts_process_group__process_group&#45;&gt;ts_process_group__read_bands</title>
<path fill="none" stroke="#000000" d="M1559.87,-319.727C1446.99,-316.517 1198.6,-305.444 993,-268 988.566,-267.193 983.988,-266.198 979.43,-265.099"/>
<polygon fill="#000000" stroke="#000000" points="980.102,-261.658 969.546,-262.558 978.359,-268.438 980.102,-261.658"/>
</g>
<!-- ts_process_group__spectral_data -->
<g id="node36" class="node"><title>ts_process_group__spectral_data</title>
<ellipse fill="#fecccc" fill-opacity="0.698039" stroke="black" cx="2060" cy="-250" rx="57.2927" ry="18"/>
<text text-anchor="middle" x="2060" y="-246.3" font-family="Times,serif" font-size="14.00" fill="#000000">spectral_data</text>
</g>
<!-- ts_process_group__process_group&#45;&gt;ts_process_group__spectral_data -->
<g id="edge32" class="edge"><title>ts_process_group__process_group&#45;&gt;ts_process_group__spectral_data</title>
<path fill="none" stroke="#000000" d="M1677.41,-314.868C1750.56,-306.48 1881.96,-289.932 1993,-268 1997.95,-267.022 2003.08,-265.907 2008.2,-264.726"/>
<polygon fill="#000000" stroke="#000000" points="2009.07,-268.118 2017.98,-262.392 2007.44,-261.309 2009.07,-268.118"/>
</g>
<!-- ts_process_group__process_group&#45;&gt;ts_process_group__add_bands -->
<g id="edge33" class="edge"><title>ts_process_group__process_group&#45;&gt;ts_process_group__add_bands</title>
<path fill="none" stroke="#000000" d="M1578.82,-308.885C1541.71,-298.204 1486.24,-282.178 1438,-268 1434.47,-266.963 1430.83,-265.887 1427.16,-264.801"/>
<polygon fill="#000000" stroke="#000000" points="1428.06,-261.417 1417.48,-261.926 1426.07,-268.127 1428.06,-261.417"/>
</g>
<!-- ts_process_group__tasseled_cap -->
<g id="node38" class="node"><title>ts_process_group__tasseled_cap</title>
<ellipse fill="#fecccc" fill-opacity="0.698039" stroke="black" cx="1502" cy="-250" rx="55.3682" ry="18"/>
<text text-anchor="middle" x="1502" y="-246.3" font-family="Times,serif" font-size="14.00" fill="#000000">tasseled_cap</text>
</g>
<!-- ts_process_group__process_group&#45;&gt;ts_process_group__tasseled_cap -->
<g id="edge34" class="edge"><title>ts_process_group__process_group&#45;&gt;ts_process_group__tasseled_cap</title>
<path fill="none" stroke="#000000" d="M1594.88,-305.638C1577.72,-295.539 1555.07,-282.215 1536.43,-271.253"/>
<polygon fill="#000000" stroke="#000000" points="1538.04,-268.139 1527.64,-266.085 1534.49,-274.172 1538.04,-268.139"/>
</g>
<!-- ts_process_group__process_group&#45;&gt;ts_process_group__df_to_csv -->
<g id="edge35" class="edge"><title>ts_process_group__process_group&#45;&gt;ts_process_group__df_to_csv</title>
<path fill="none" stroke="#000000" d="M1621,-303.697C1621,-295.983 1621,-286.712 1621,-278.112"/>
<polygon fill="#000000" stroke="#000000" points="1624.5,-278.104 1621,-268.104 1617.5,-278.104 1624.5,-278.104"/>
</g>
<!-- ts_process_group__timesync_band_list -->
<g id="node40" class="node"><title>ts_process_group__timesync_band_list</title>
<ellipse fill="#fecccc" fill-opacity="0.698039" stroke="black" cx="1764" cy="-250" rx="78.9404" ry="18"/>
<text text-anchor="middle" x="1764" y="-246.3" font-family="Times,serif" font-size="14.00" fill="#000000">timesync_band_list</text>
</g>
<!-- ts_process_group__process_group&#45;&gt;ts_process_group__timesync_band_list -->
<g id="edge36" class="edge"><title>ts_process_group__process_group&#45;&gt;ts_process_group__timesync_band_list</title>
<path fill="none" stroke="#000000" d="M1651.33,-306.155C1672.22,-295.926 1700.24,-282.212 1723.1,-271.019"/>
<polygon fill="#000000" stroke="#000000" points="1724.79,-274.092 1732.23,-266.552 1721.71,-267.805 1724.79,-274.092"/>
</g>
<!-- ts_process_group__process_group&#45;&gt;ts_process_group__convert_sr -->
<g id="edge37" class="edge"><title>ts_process_group__process_group&#45;&gt;ts_process_group__convert_sr</title>
<path fill="none" stroke="#000000" d="M1681.07,-317.937C1765.12,-311.472 1902.23,-291.679 1852,-232 1820.77,-194.892 1682.29,-183.765 1602.74,-180.428"/>
<polygon fill="#000000" stroke="#000000" points="1602.52,-176.917 1592.39,-180.025 1602.25,-183.912 1602.52,-176.917"/>
</g>
<!-- ts_process_group__process_group&#45;&gt;ts_process_group__array_mask -->
<g id="edge38" class="edge"><title>ts_process_group__process_group&#45;&gt;ts_process_group__array_mask</title>
<path fill="none" stroke="#000000" d="M1670.14,-311.015C1719.89,-300.765 1798.97,-284.082 1867,-268 1872.33,-266.741 1877.88,-265.382 1883.41,-264"/>
<polygon fill="#000000" stroke="#000000" points="1884.44,-267.35 1893.28,-261.505 1882.72,-260.564 1884.44,-267.35"/>
</g>
<!-- ts_process_group__process_group&#45;&gt;ts_process_group__build_df -->
<g id="edge39" class="edge"><title>ts_process_group__process_group&#45;&gt;ts_process_group__build_df</title>
<path fill="none" stroke="#000000" d="M1559.8,-319.858C1374.64,-316.058 822.319,-302.097 646,-268 642.366,-267.297 638.634,-266.393 634.926,-265.369"/>
<polygon fill="#000000" stroke="#000000" points="635.835,-261.987 625.249,-262.433 633.802,-268.686 635.835,-261.987"/>
</g>
<!-- ts_process_group__process_group&#45;&gt;ts_process_group__adjust_for_s3 -->
<g id="edge40" class="edge"><title>ts_process_group__process_group&#45;&gt;ts_process_group__adjust_for_s3</title>
<path fill="none" stroke="#000000" d="M1680.48,-317.541C1775.29,-311.403 1966.32,-296.485 2126,-268 2131.04,-267.101 2136.26,-266.03 2141.46,-264.868"/>
<polygon fill="#000000" stroke="#000000" points="2142.45,-268.232 2151.39,-262.546 2140.85,-261.416 2142.45,-268.232"/>
</g>
<!-- ts_process_group__query_stac -->
<g id="node32" class="node"><title>ts_process_group__query_stac</title>
<ellipse fill="#fecccc" fill-opacity="0.698039" stroke="black" cx="331" cy="-250" rx="48.6179" ry="18"/>
<text text-anchor="middle" x="331" y="-246.3" font-family="Times,serif" font-size="14.00" fill="#000000">query_stac</text>
</g>
<!-- ts_process_group__read_bands&#45;&gt;ts_process_group__centered_window -->
<g id="edge6" class="edge"><title>ts_process_group__read_bands&#45;&gt;ts_process_group__centered_window</title>
<path fill="none" stroke="#000000" d="M933,-231.697C933,-223.983 933,-214.712 933,-206.112"/>
<polygon fill="#000000" stroke="#000000" points="936.5,-206.104 933,-196.104 929.5,-206.104 936.5,-206.104"/>
</g>
<!-- ts_process_group__single_pixel_window -->
<g id="node35" class="node"><title>ts_process_group__single_pixel_window</title>
<ellipse fill="#fecccc" fill-opacity="0.698039" stroke="black" cx="2459" cy="-178" rx="85.2138" ry="18"/>
<text text-anchor="middle" x="2459" y="-174.3" font-family="Times,serif" font-size="14.00" fill="#000000">single_pixel_window</text>
</g>
<!-- ts_process_group__read_qa_at_plot&#45;&gt;ts_process_group__single_pixel_window -->
<g id="edge7" class="edge"><title>ts_process_group__read_qa_at_plot&#45;&gt;ts_process_group__single_pixel_window</title>
<path fill="none" stroke="#000000" d="M2459,-231.697C2459,-223.983 2459,-214.712 2459,-206.112"/>
<polygon fill="#000000" stroke="#000000" points="2462.5,-206.104 2459,-196.104 2455.5,-206.104 2462.5,-206.104"/>
</g>
<!-- ts_process_group__spectral_data&#45;&gt;ts_process_group__center_value -->
<g id="edge11" class="edge"><title>ts_process_group__spectral_data&#45;&gt;ts_process_group__center_value</title>
<path fill="none" stroke="#000000" d="M2060,-231.697C2060,-223.983 2060,-214.712 2060,-206.112"/>
<polygon fill="#000000" stroke="#000000" points="2063.5,-206.104 2060,-196.104 2056.5,-206.104 2063.5,-206.104"/>
</g>
<!-- ts_process_group__stac_records_for_plot -->
<g id="node37" class="node"><title>ts_process_group__stac_records_for_plot</title>
<ellipse fill="#fecccc" fill-opacity="0.698039" stroke="black" cx="271" cy="-322" rx="87.1385" ry="18"/>
<text text-anchor="middle" x="271" y="-318.3" font-family="Times,serif" font-size="14.00" fill="#000000">stac_records_for_plot</text>
</g>
<!-- ts_process_group__stac_records_for_plot&#45;&gt;ts_process_group__build_query -->
<g id="edge16" class="edge"><title>ts_process_group__stac_records_for_plot&#45;&gt;ts_process_group__build_query</title>
<path fill="none" stroke="#000000" d="M256.476,-304.055C249.106,-295.457 240.02,-284.857 231.912,-275.397"/>
<polygon fill="#000000" stroke="#000000" points="234.556,-273.104 225.391,-267.789 229.241,-277.659 234.556,-273.104"/>
</g>
<!-- ts_process_group__stac_records_for_plot&#45;&gt;ts_process_group__determine_hvs -->
<g id="edge17" class="edge"><title>ts_process_group__stac_records_for_plot&#45;&gt;ts_process_group__determine_hvs</title>
<path fill="none" stroke="#000000" d="M229.597,-305.983C198.781,-294.807 156.692,-279.541 124.681,-267.931"/>
<polygon fill="#000000" stroke="#000000" points="125.688,-264.573 115.094,-264.454 123.301,-271.154 125.688,-264.573"/>
</g>
<!-- ts_process_group__stac_records_for_plot&#45;&gt;ts_process_group__centered_bounds -->
<g id="edge18" class="edge"><title>ts_process_group__stac_records_for_plot&#45;&gt;ts_process_group__centered_bounds</title>
<path fill="none" stroke="#000000" d="M312.779,-306.155C343.792,-295.135 386.187,-280.071 418.834,-268.47"/>
<polygon fill="#000000" stroke="#000000" points="420.379,-271.636 428.63,-264.989 418.035,-265.04 420.379,-271.636"/>
</g>
<!-- ts_process_group__stac_records_for_plot&#45;&gt;ts_process_group__query_stac -->
<g id="edge19" class="edge"><title>ts_process_group__stac_records_for_plot&#45;&gt;ts_process_group__query_stac</title>
<path fill="none" stroke="#000000" d="M285.524,-304.055C293.003,-295.33 302.248,-284.544 310.445,-274.981"/>
<polygon fill="#000000" stroke="#000000" points="313.172,-277.177 317.023,-267.307 307.857,-272.622 313.172,-277.177"/>
</g>
</g>
</svg>
